<?xml version="1.0" encoding="UTF-8"?>
<svg version="1.1" xmlns="http://www.w3.org/2000/svg" width="16" height="16">
<path d="M0 0 C1.32 0.33 2.64 0.66 4 1 C4.3125 3.1875 4.3125 3.1875 4 6 C1.5 8.8125 1.5 8.8125 -1 11 C-0.01 11.99 0.98 12.98 2 14 C-1.78183906 16.52122604 -4.55855205 16.73098831 -9 16 C-11 14.4375 -11 14.4375 -12 12 C-12.1875 8.25 -12.1875 8.25 -12 5 C-10.68 4.67 -9.36 4.34 -8 4 C-8 5.32 -8 6.64 -8 8 C-7.05125 7.175 -6.1025 6.35 -5.125 5.5 C-2.25 3 -2.25 3 0 3 C0 2.01 0 1.02 0 0 Z " fill="#8DB157" transform="translate(12,0)"/>
<path d="M0 0 C1.32 0.33 2.64 0.66 4 1 C4.3125 3.25 4.3125 3.25 4 6 C1.8125 8.375 1.8125 8.375 -1 10 C-3.8125 9.75 -3.8125 9.75 -6 9 C-5.25 6.5625 -5.25 6.5625 -4 4 C-1.875 3.1875 -1.875 3.1875 0 3 C0 2.01 0 1.02 0 0 Z " fill="#68A02D" transform="translate(12,0)"/>
<path d="M0 0 C2 2 2 2 2.25 4.9375 C2.694187 8.30691273 2.694187 8.30691273 6.0625 9.875 C7.5165625 10.431875 7.5165625 10.431875 9 11 C9 11.33 9 11.66 9 12 C2.59903382 12.48309179 2.59903382 12.48309179 0.0625 10.4375 C-1.36150232 7.17067114 -1.26588635 4.52299415 -1 1 C-0.67 0.67 -0.34 0.34 0 0 Z " fill="#7C9D5F" transform="translate(1,4)"/>
<path d="M0 0 C1.32 0.33 2.64 0.66 4 1 C4.1875 3.375 4.1875 3.375 4 6 C3.01 6.66 2.02 7.32 1 8 C0.67 5.36 0.34 2.72 0 0 Z " fill="#CCCFCA" transform="translate(12,0)"/>
</svg>
